<svg width="50" height="50" viewBox="0 0 50 50" fill="none" xmlns="http://www.w3.org/2000/svg">
<path d="M13.855 0.673038C13.6725 0.769037 13.432 0.961537 13.3265 1.10554C13.144 1.36504 13.1345 1.51904 13.1055 5.95004C13.0865 9.24704 13.115 10.6025 13.192 10.7945C13.2495 10.9485 13.4515 11.198 13.634 11.352C14.249 11.8905 15.345 11.6885 15.7485 10.9485C15.912 10.66 15.9215 10.2755 15.9215 6.04604C15.9215 1.54754 15.9215 1.46104 15.7195 1.19204C15.22 0.519536 14.509 0.317537 13.855 0.673038Z" fill="#8EC63F"/>
<path d="M34.8195 0.702033C34.637 0.817533 34.3965 1.04803 34.291 1.19203C34.0985 1.46103 34.089 1.57653 34.06 5.93103C34.031 10.199 34.041 10.4105 34.2235 10.8235C34.4735 11.381 34.8865 11.6405 35.55 11.6405C35.944 11.6405 36.1075 11.5925 36.348 11.3905C36.944 10.8905 36.925 11.025 36.925 6.11353C36.925 2.17253 36.906 1.58603 36.771 1.29753C36.425 0.567533 35.4445 0.269533 34.8195 0.702033Z" fill="#8EC63F"/>
<path d="M6.19401 4.72002C4.90601 4.91202 3.62751 5.87352 3.01251 7.11353L2.65701 7.83453L2.62801 26.896L2.60901 45.9575L2.81101 46.5535C3.22451 47.784 4.13751 48.745 5.37751 49.245L5.92551 49.466L24.7175 49.495C37.896 49.514 43.6635 49.4855 44.0095 49.418C45.4995 49.101 46.7105 48.0145 47.2105 46.544C47.4025 45.9575 47.4025 45.8905 47.3835 26.8965L47.3545 7.84502L47.047 7.19153C46.432 5.89403 45.1535 4.93252 43.75 4.71152C43.404 4.66352 41.895 4.63452 40.3855 4.64402L37.646 4.67303L37.617 6.08603L37.588 7.49903L40.616 7.52803C43.5 7.55703 43.6535 7.56652 43.9035 7.75852C44.0475 7.86452 44.259 8.07552 44.365 8.22002C44.5575 8.47952 44.567 8.59502 44.567 12.1515V15.8235L24.977 15.8525L5.38701 15.872L5.41601 12.181C5.44501 8.62452 5.45451 8.47053 5.64651 8.22053C5.75201 8.07653 5.96351 7.86503 6.10801 7.75903C6.35801 7.56703 6.51201 7.55702 9.33801 7.52852L12.2985 7.49952L12.337 6.60553C12.3465 6.11552 12.3465 5.46152 12.337 5.16352L12.2985 4.62502L9.50151 4.63453C7.95301 4.64302 6.47301 4.68152 6.19401 4.72002ZM44.5955 32.1825L44.5665 45.6205L44.3455 45.9665C43.903 46.6875 45.5855 46.63 24.986 46.63C7.13601 46.63 6.48201 46.6205 6.16501 46.4475C5.98251 46.3515 5.74201 46.121 5.63651 45.9475C5.44451 45.6205 5.44451 45.4285 5.41551 32.1825L5.39601 18.754H25.005H44.614L44.5955 32.1825Z" fill="#8EC63F"/>
<path d="M11.9905 23.07C11.4425 23.4355 11.356 23.685 11.356 24.954C11.356 26.2515 11.4715 26.569 12.048 26.9245C12.3365 27.0975 12.538 27.1165 14.2975 27.1165C16.143 27.1165 16.249 27.107 16.547 26.8955C17.191 26.463 17.268 26.261 17.268 25.021C17.268 23.752 17.1525 23.406 16.6145 23.0795C16.3355 22.9065 16.1245 22.887 14.2885 22.887C12.471 22.887 12.2405 22.9065 11.9905 23.07Z" fill="#8EC63F"/>
<path d="M22.689 23.1085C22.1315 23.4835 22.016 23.8295 22.045 25.0985C22.074 26.0885 22.1025 26.2425 22.3045 26.5305C22.6795 27.059 22.9485 27.117 25.015 27.117C27.0525 27.117 27.3315 27.0595 27.7255 26.502C27.908 26.2425 27.937 26.06 27.966 25.0985C27.9945 23.8295 27.8795 23.4835 27.322 23.1085C27.005 22.897 26.9185 22.8875 25.0055 22.8875C23.0925 22.887 23.006 22.897 22.689 23.1085Z" fill="#8EC63F"/>
<path d="M33.397 23.0795C32.8585 23.4065 32.7435 23.7525 32.7435 25.021C32.7435 26.261 32.8205 26.463 33.4645 26.8955C33.7625 27.107 33.868 27.1165 35.714 27.1165C37.473 27.1165 37.675 27.0975 37.963 26.9245C38.54 26.569 38.655 26.2515 38.655 24.954C38.655 23.685 38.5685 23.435 38.0205 23.07C37.7705 22.9065 37.54 22.8875 35.723 22.8875C33.8875 22.887 33.676 22.9065 33.397 23.0795Z" fill="#8EC63F"/>
<path d="M12.1635 30.673C12.0575 30.7115 11.827 30.9135 11.654 31.1055L11.337 31.461L11.3755 32.749C11.4045 34.008 11.4045 34.0275 11.683 34.316C12.135 34.787 12.3175 34.816 14.442 34.787C16.605 34.758 16.701 34.7295 17.095 34.0855C17.3545 33.6435 17.345 31.721 17.076 31.269C16.682 30.6155 16.5185 30.577 14.327 30.5865C13.2495 30.587 12.279 30.625 12.1635 30.673Z" fill="#8EC63F"/>
<path d="M22.689 30.798C22.1605 31.144 22.026 31.5285 22.026 32.6915C22.026 33.8545 22.1605 34.239 22.689 34.585C23.006 34.7965 23.0925 34.806 25.0055 34.806C26.9085 34.806 27.005 34.7965 27.3125 34.585C27.851 34.2195 27.9855 33.845 27.9855 32.6915C27.9855 31.5285 27.851 31.144 27.322 30.798C27.005 30.5865 26.9185 30.577 25.0055 30.577C23.0925 30.577 23.006 30.587 22.689 30.798Z" fill="#8EC63F"/>
<path d="M33.3585 30.808C32.8585 31.154 32.7435 31.5095 32.7435 32.74C32.7435 33.6725 32.7725 33.836 32.9645 34.1435C33.33 34.749 33.5795 34.8065 35.7235 34.8065C37.7515 34.8065 37.9055 34.7775 38.367 34.278C38.598 34.028 38.6075 33.98 38.6075 32.6825V31.3465L38.2425 30.991L37.887 30.6255L35.7915 30.5965C33.7045 30.5675 33.7045 30.5675 33.3585 30.808Z" fill="#8EC63F"/>
<path d="M12.077 38.4495C11.433 38.8435 11.404 38.9205 11.404 40.391V41.727L11.769 42.0825L12.1245 42.4475L14.172 42.4765C16.4695 42.515 16.652 42.4765 17.0555 41.8325C17.238 41.525 17.267 41.3615 17.267 40.381C17.267 39.4005 17.238 39.237 17.046 38.9295C16.671 38.324 16.431 38.266 14.268 38.266C12.5865 38.267 12.3365 38.286 12.077 38.4495Z" fill="#8EC63F"/>
<path d="M22.689 38.488C22.1605 38.834 22.026 39.2185 22.026 40.3815C22.026 41.5445 22.1605 41.929 22.689 42.275C23.006 42.4865 23.0925 42.496 25.0055 42.496C26.9185 42.496 27.005 42.4865 27.322 42.275C27.8505 41.929 27.9855 41.5445 27.9855 40.3815C27.9855 39.2185 27.851 38.834 27.322 38.488C27.005 38.2765 26.9185 38.267 25.0055 38.267C23.0925 38.267 23.006 38.2765 22.689 38.488Z" fill="#8EC63F"/>
<path d="M16.643 6.06554V7.50754H25.006H33.3685V6.06554V4.62354H25.0055H16.643V6.06554Z" fill="#8EC63F"/>
</svg>
