<svg width="14" height="14" viewBox="0 0 14 14" fill="none" xmlns="http://www.w3.org/2000/svg">
<path d="M13.6913 0.913515H10.5654V0H9.96873V0.913515H4.01661V0H3.41997V0.913515H0.296892C0.119899 0.913515 0 1.03341 0 1.21612V13.6827C0 13.8654 0.119899 13.9882 0.296892 13.9882H13.6884C13.8683 13.9882 13.9853 13.8654 13.9853 13.6827V1.21612C13.9882 1.03341 13.8683 0.913515 13.6913 0.913515ZM13.3916 13.3801H0.596639V1.52157H3.42283V2.43509H4.01946V1.52157H9.97158V2.43509H10.5682V1.52157H13.3944V13.3801H13.3916Z" fill="#8EC63F"/>
<path d="M2.08385 4.56177C1.904 4.56177 1.78696 4.68452 1.78696 4.86722V11.8613C1.78696 12.044 1.90686 12.1668 2.08385 12.1668H11.9041C12.084 12.1668 12.201 12.044 12.201 11.8613V4.86722C12.201 4.68452 12.0811 4.56177 11.9041 4.56177H2.08385ZM11.6072 11.5559H2.38074V5.16983H11.6072V11.5559Z" fill="#8EC63F"/>
<path d="M6.40023 6.32617H5.80359V6.93423H6.40023V6.32617Z" fill="#8EC63F"/>
<path d="M8.1874 6.32617H7.59076V6.93423H8.1874V6.32617Z" fill="#8EC63F"/>
<path d="M9.97161 6.32617H9.37497V6.93423H9.97161V6.32617Z" fill="#8EC63F"/>
<path d="M4.61324 8.05884H4.0166V8.6669H4.61324V8.05884Z" fill="#8EC63F"/>
<path d="M6.40023 8.05884H5.80359V8.6669H6.40023V8.05884Z" fill="#8EC63F"/>
<path d="M8.1874 8.05884H7.59076V8.6669H8.1874V8.05884Z" fill="#8EC63F"/>
<path d="M9.97161 8.05884H9.37497V8.6669H9.97161V8.05884Z" fill="#8EC63F"/>
<path d="M4.61324 9.82324H4.0166V10.4313H4.61324V9.82324Z" fill="#8EC63F"/>
<path d="M6.40023 9.82324H5.80359V10.4313H6.40023V9.82324Z" fill="#8EC63F"/>
<path d="M8.1874 9.82324H7.59076V10.4313H8.1874V9.82324Z" fill="#8EC63F"/>
<path d="M9.97161 9.82324H9.37497V10.4313H9.97161V9.82324Z" fill="#8EC63F"/>
</svg>
