<svg width="9" height="18" viewBox="0 0 9 18" fill="none" xmlns="http://www.w3.org/2000/svg">
<path d="M0.264761 9.38472H2.06413V17.3364C2.06413 17.4934 2.18263 17.6206 2.32889 17.6206H5.37978C5.52603 17.6206 5.64454 17.4934 5.64454 17.3364V9.42218H7.71306C7.84756 9.42218 7.96072 9.31384 7.97607 9.17043L8.29024 6.24303C8.29887 6.16248 8.27509 6.08183 8.22489 6.02141C8.17464 5.96093 8.10273 5.92631 8.02728 5.92631H5.64464V4.09127C5.64464 3.5381 5.92211 3.25759 6.46943 3.25759C6.54742 3.25759 8.02728 3.25759 8.02728 3.25759C8.17353 3.25759 8.29204 3.13032 8.29204 2.97339V0.286306C8.29204 0.129312 8.17353 0.0021031 8.02728 0.0021031H5.88033C5.86519 0.00130733 5.83156 0 5.782 0C5.40948 0 4.11464 0.0784967 3.09182 1.08855C1.95854 2.20786 2.11607 3.54805 2.15372 3.78041V5.92625H0.264761C0.118507 5.92625 0 6.05346 0 6.21046V9.10046C0 9.25745 0.118507 9.38472 0.264761 9.38472Z" fill="#8EC63F"/>
</svg>
