<svg width="58" height="82" viewBox="0 0 58 82" fill="none" xmlns="http://www.w3.org/2000/svg">
<path d="M28.7685 0C12.9055 0 0 12.9055 0 28.7683C0 35.0506 1.98917 41.0193 5.7523 46.0292C9.15655 50.5612 13.909 54.0394 19.2278 55.9144C19.6987 57.4795 20.5447 58.8976 21.7136 60.0666C23.1128 61.4657 24.8603 62.3969 26.7647 62.7806V73.6265C26.7647 74.733 27.6618 75.6303 28.7685 75.6303C29.8752 75.6303 30.7723 74.733 30.7723 73.6265V62.7806C32.6767 62.3967 34.4242 61.4657 35.8235 60.0664C36.9921 58.8976 37.8381 57.4797 38.309 55.9144C43.6277 54.0396 48.3801 50.5612 51.7843 46.0292C55.5475 41.0193 57.5368 35.0506 57.5368 28.7683C57.5368 12.9055 44.6314 0 28.7685 0ZM36.0315 52.446C35.3071 52.6678 34.7697 53.2796 34.6428 54.0266C34.4353 55.2499 33.8634 56.3588 32.9895 57.2327C31.8732 58.349 30.3826 58.966 28.7902 58.9718C28.7829 58.9716 28.7757 58.9716 28.7685 58.9716C28.7613 58.9716 28.7541 58.9716 28.7469 58.9718C27.1545 58.9661 25.6636 58.3492 24.5473 57.2327C23.6735 56.3586 23.1018 55.2499 22.8942 54.0268C22.7675 53.2796 22.2301 52.668 21.5056 52.446C11.0395 49.2397 4.0076 39.7245 4.0076 28.7683C4.0076 15.1152 15.1152 4.0076 28.7685 4.0076C42.4216 4.0076 53.5292 15.1152 53.5292 28.7683C53.5292 39.7245 46.4973 49.2397 36.0315 52.446ZM40.521 75.1216C40.521 79.0428 35.4686 81.9998 28.7685 81.9998C22.0682 81.9998 17.0158 79.0428 17.0158 75.1216C17.0158 72.8795 18.6726 70.8709 21.5611 69.6107C22.5758 69.1683 23.7564 69.632 24.1991 70.6463C24.6415 71.6606 24.178 72.8417 23.1637 73.2841C21.6933 73.9255 21.0236 74.6861 21.0236 75.1216C21.0236 76.1337 23.9642 77.9922 28.7687 77.9922C33.5732 77.9922 36.5136 76.1337 36.5136 75.1216C36.5136 74.6863 35.8439 73.9259 34.3737 73.2843C33.3594 72.8419 32.8959 71.6606 33.3386 70.6465C33.781 69.632 34.9621 69.1685 35.9766 69.6113C38.8645 70.8717 40.521 72.8801 40.521 75.1216ZM27.8065 19.3779V30.7681C27.8065 31.8746 26.9094 32.7719 25.8027 32.7719H21.9708V42.1579C21.9708 43.2644 21.0737 44.1617 19.967 44.1617C18.8603 44.1617 17.9632 43.2644 17.9632 42.1579V32.7719H14.131C13.0243 32.7719 12.1272 31.8746 12.1272 30.7681V19.3779C12.1272 18.2714 13.0243 17.3741 14.131 17.3741C15.2377 17.3741 16.1348 18.2714 16.1348 19.3779V28.7643H17.9632V19.3779C17.9632 18.2714 18.8603 17.3741 19.967 17.3741C21.0737 17.3741 21.9708 18.2714 21.9708 19.3779V28.7643H23.7989V19.3779C23.7989 18.2714 24.696 17.3741 25.8027 17.3741C26.9094 17.3741 27.8065 18.2714 27.8065 19.3779ZM43.4063 17.3741H33.5877C32.481 17.3741 31.5839 18.2714 31.5839 19.3779V42.1579C31.5839 43.2644 32.481 44.1617 33.5877 44.1617C34.6943 44.1617 35.5914 43.2644 35.5914 42.1579V37.5371H43.4063C44.513 37.5371 45.4101 36.6398 45.4101 35.5333V19.3779C45.4101 18.2714 44.513 17.3741 43.4063 17.3741ZM41.4025 33.5295H35.5914V21.3817H41.4025V33.5295Z" fill="#8EC63F"/>
</svg>
