<svg width="25" height="25" viewBox="0 0 25 25" fill="none" xmlns="http://www.w3.org/2000/svg">
<path fill-rule="evenodd" clip-rule="evenodd" d="M22.5 6.25C22.8315 6.25 23.1495 6.1183 23.3839 5.88388C23.6183 5.64946 23.75 5.33152 23.75 5C23.75 4.66848 23.6183 4.35054 23.3839 4.11612C23.1495 3.8817 22.8315 3.75 22.5 3.75H2.5C2.16848 3.75 1.85054 3.8817 1.61612 4.11612C1.3817 4.35054 1.25 4.66848 1.25 5C1.25 5.33152 1.3817 5.64946 1.61612 5.88388C1.85054 6.1183 2.16848 6.25 2.5 6.25H22.5ZM12.5 11.25C12.8315 11.25 13.1495 11.1183 13.3839 10.8839C13.6183 10.6495 13.75 10.3315 13.75 10C13.75 9.66848 13.6183 9.35054 13.3839 9.11612C13.1495 8.8817 12.8315 8.75 12.5 8.75H2.5C2.16848 8.75 1.85054 8.8817 1.61612 9.11612C1.3817 9.35054 1.25 9.66848 1.25 10C1.25 10.3315 1.3817 10.6495 1.61612 10.8839C1.85054 11.1183 2.16848 11.25 2.5 11.25H12.5ZM23.75 15C23.75 15.3315 23.6183 15.6495 23.3839 15.8839C23.1495 16.1183 22.8315 16.25 22.5 16.25H2.5C2.16848 16.25 1.85054 16.1183 1.61612 15.8839C1.3817 15.6495 1.25 15.3315 1.25 15C1.25 14.6685 1.3817 14.3505 1.61612 14.1161C1.85054 13.8817 2.16848 13.75 2.5 13.75H22.5C22.8315 13.75 23.1495 13.8817 23.3839 14.1161C23.6183 14.3505 23.75 14.6685 23.75 15ZM12.5 21.25C12.8315 21.25 13.1495 21.1183 13.3839 20.8839C13.6183 20.6495 13.75 20.3315 13.75 20C13.75 19.6685 13.6183 19.3505 13.3839 19.1161C13.1495 18.8817 12.8315 18.75 12.5 18.75H2.5C2.16848 18.75 1.85054 18.8817 1.61612 19.1161C1.3817 19.3505 1.25 19.6685 1.25 20C1.25 20.3315 1.3817 20.6495 1.61612 20.8839C1.85054 21.1183 2.16848 21.25 2.5 21.25H12.5Z" fill="white"/>
</svg>
