<svg width="56" height="56" viewBox="0 0 56 56" fill="none" xmlns="http://www.w3.org/2000/svg">
<path d="M31.5038 0.125542C30.805 0.300533 29.9095 0.726322 29.3743 1.11905C29.0465 1.35902 28.9918 1.37043 28.4571 1.26099C26.4587 0.835194 24.515 1.76316 23.6851 3.54327C23.4337 4.0785 23.3904 4.30763 23.3904 5.2031C23.3904 6.14246 23.4229 6.30605 23.7398 6.95015C24.1656 7.81313 24.7333 8.42418 25.7057 9.05801C27.1364 9.97514 28.2172 11.0781 29.2984 12.6946C29.6262 13.186 29.8878 13.6009 29.8878 13.6226C29.8878 13.6442 29.5384 13.6773 29.1018 13.6881C27.4636 13.7428 26.5134 14.2667 24.6575 16.1123C18.192 22.5448 5.12018 41.6443 0.959753 50.7193C-0.00126705 52.8158 -0.099307 53.1435 0.064283 53.8646C0.239273 54.6181 0.642833 55.0439 1.38554 55.2189C1.88771 55.3392 2.01881 55.3283 2.7068 55.1095C3.60227 54.8148 7.3808 52.9799 9.41171 51.8337C21.1948 45.2376 37.0727 33.7932 40.5998 29.3705C41.2992 28.4853 41.5175 27.994 41.7142 26.8477L41.8453 26.0503L42.828 26.618C44.2148 27.404 45.263 28.2231 46.0057 29.0861C47.0323 30.2654 47.5345 30.7021 48.3211 31.117C49.424 31.6847 50.4722 31.8814 51.6191 31.7286C53.0059 31.532 54.1527 30.6696 54.7643 29.3591C55.1685 28.4962 55.1685 27.1857 54.7752 26.2139L54.5021 25.5475L54.7643 25.1765C55.8889 23.5605 56.162 21.8237 55.5179 20.3714C55.1576 19.5631 54.1419 18.3074 53.2681 17.5869C52.1435 16.6476 49.9917 15.6865 49.0313 15.6865C48.8893 15.6865 48.7799 15.6541 48.7799 15.621C48.7799 15.5771 49.1624 15.1405 49.6429 14.6491C51.0844 13.1421 51.6738 11.8208 51.663 10.1171C51.6521 8.87219 51.4338 8.17337 50.6911 7.05959C49.2171 4.84286 46.8909 3.99072 44.0842 4.65704C43.036 4.90841 41.3215 5.69444 40.7754 6.18578L40.4043 6.5027L40.2185 5.8472C39.7927 4.31846 38.8534 2.93166 37.4996 1.87202C36.5278 1.09682 35.6756 0.605484 34.726 0.277733C33.8847 -0.0163841 32.3337 -0.0927658 31.5038 0.125542ZM34.4416 2.15645C35.1512 2.42948 36.5494 3.44522 37.1605 4.14404C38.1762 5.30171 38.6567 6.66686 38.6567 8.47946C38.6567 9.80072 38.4276 11.1328 37.9362 12.6291L37.5868 13.6665L37.5213 12.356C37.3902 9.96431 36.7786 8.17337 35.4242 6.20801C34.791 5.29088 33.1744 3.70742 32.1046 2.95388C31.1219 2.2659 31.1435 2.28756 31.4057 2.14563C32.1046 1.77456 33.4258 1.78538 34.4416 2.15645ZM28.2496 3.1397C30.0081 3.54383 32.6837 5.59697 33.9827 7.5515C35.162 9.30938 35.5987 10.882 35.6101 13.2846C35.6101 15.1411 35.4351 16.1568 34.7801 18.1769L34.3327 19.542L33.7097 17.7511C32.9778 15.6216 32.6398 14.8247 31.7768 13.2629C30.4339 10.7731 28.7085 8.75306 26.9284 7.57373C26.4262 7.24598 25.9018 6.86408 25.7707 6.71075C25.0172 5.90249 25.0063 4.42848 25.7491 3.68577C26.3059 3.12831 27.2778 2.90999 28.2496 3.1397ZM47.3709 6.61214C48.1461 6.90683 49.0963 7.86785 49.5112 8.77415C49.7518 9.28715 49.8059 9.57158 49.8167 10.2812C49.8167 11.0781 49.7842 11.2206 49.4343 11.8647C48.9754 12.7163 47.665 14.0598 46.4309 14.9444C45.7105 15.4466 45.426 15.5777 44.8475 15.6871C42.9038 16.0257 40.1626 16.932 38.3717 17.8275L37.6398 18.1985L38.1967 17.0848C39.278 14.9227 40.2282 12.1052 40.4357 10.4671C40.5121 9.76823 40.6648 9.42965 41.2217 8.64305C41.855 7.74758 42.1388 7.49622 42.9254 7.09208C44.5317 6.28439 46.0496 6.1208 47.3709 6.61214ZM30.6414 15.6757C30.8488 15.7304 30.9908 15.9271 31.2199 16.5056C31.7221 17.718 32.2681 19.4104 32.6176 20.8519C33.1197 22.8942 33.1528 22.9922 33.3928 23.1233C33.513 23.1889 34.3646 23.4511 35.2709 23.7133C36.9746 24.1938 39.6719 25.1109 39.803 25.242C39.8469 25.2859 39.8794 25.6786 39.8685 26.1267C39.8577 26.8038 39.803 27.0438 39.4975 27.6554C38.8967 28.8895 36.4616 31.1717 32.2904 34.4042C31.0016 35.4091 30.7833 35.5402 30.4886 35.4855C28.6646 35.1686 27.3433 34.5461 26.3168 33.4871C25.716 32.8646 25.5085 32.7227 25.2355 32.7227C24.8205 32.7227 24.3731 33.0613 24.2745 33.4324C24.0778 34.1967 25.3666 35.4855 27.2122 36.3918C27.8672 36.7195 28.468 36.9817 28.5443 36.9817C28.6207 36.9817 28.6863 37.0142 28.6863 37.0581C28.6863 37.1784 25.126 39.6898 21.7955 41.9288C20.0918 43.0756 19.0766 43.7089 19.0111 43.6433C18.9455 43.5778 18.6178 43.4797 18.2684 43.4142C17.2749 43.2284 16.543 42.8573 15.8658 42.1801C15.1887 41.4922 14.8393 41.4049 14.3479 41.7868C13.9877 42.0707 13.8782 42.5512 14.0965 42.9662C14.3587 43.4683 15.3306 44.2766 16.1389 44.6591C16.5538 44.8557 16.8924 45.0415 16.8924 45.0849C16.8924 45.2599 10.8755 48.8851 7.7741 50.578C5.16407 52.0087 2.09576 53.4502 1.95383 53.3191C1.88828 53.2535 2.7182 51.3423 3.42785 49.9339C4.05029 48.689 5.58986 45.8823 5.77568 45.6423C5.86289 45.5443 6.03788 45.6098 6.49616 45.9262C7.3808 46.527 8.21072 46.9197 8.57096 46.9197C8.9312 46.9197 9.3245 46.5919 9.42254 46.21C9.55364 45.6748 9.29144 45.3585 8.23238 44.7469C6.64892 43.8514 6.73613 44.0041 7.28219 43.0762C8.30876 41.3508 10.2416 38.3041 12.2292 35.323L14.3149 32.1886L14.6973 32.9205C14.9156 33.3246 15.3637 33.9362 15.7022 34.2748C16.2375 34.81 16.3902 34.9081 16.7288 34.9081C17.264 34.9081 17.6568 34.5148 17.6568 33.9801C17.6568 33.6524 17.5587 33.4888 17.0999 33.0299C16.4774 32.4075 16.0841 31.654 15.8989 30.726L15.7786 30.1252L16.4666 29.1534C17.8534 27.2205 19.3497 25.2112 20.5398 23.6933L21.7408 22.1315L21.9814 22.7648C22.7349 24.7849 24.3184 26.7178 25.1922 26.7178C25.6727 26.7178 26.1093 26.2811 26.1093 25.8115C26.1093 25.462 25.9999 25.2985 25.2902 24.5666C24.3292 23.5731 23.8817 22.754 23.5318 21.3341C23.3243 20.5042 23.3134 20.3514 23.4445 20.1001C23.6737 19.6959 26.5351 16.7473 27.1684 16.2782C27.463 16.0599 27.9219 15.8194 28.1733 15.7321C28.6538 15.5885 30.1933 15.5452 30.6414 15.6757ZM49.0307 17.6092C50.3736 17.9038 51.5535 18.5485 52.5031 19.4981C52.962 19.957 53.4642 20.5572 53.6169 20.8302C54.1299 21.704 54.1191 22.6651 53.5736 23.5383L53.3553 23.9094L52.4051 22.9592C51.1711 21.736 50.1992 21.0371 48.7252 20.3167C46.3226 19.1482 43.8876 18.7879 40.5896 19.1373L40.0982 19.1812L40.5896 18.9521C41.5067 18.5263 43.6909 17.86 44.8486 17.6525C46.301 17.4017 48.0047 17.3794 49.0307 17.6092ZM44.6628 21.0924C47.6661 21.5399 50.2539 23.1125 52.209 25.6678C53.1484 26.891 53.3559 27.7318 52.9295 28.6603C52.1212 30.4404 49.7301 30.4729 48.2663 28.7042C46.0388 26.0178 43.2429 24.3032 38.362 22.6103L36.8441 22.0859L37.4335 21.8893C39.8577 21.0485 42.4677 20.7647 44.6628 21.0924Z" fill="#8EC63F"/>
<path d="M31.7443 22.9273C31.3841 23.1131 31.1658 23.5828 31.253 23.9863C31.351 24.423 33.1967 26.2578 34.4307 27.1424C35.6209 27.994 37.4341 28.9009 37.9362 28.9009C38.3512 28.9009 38.6898 28.617 38.7986 28.169C38.9297 27.6446 38.6567 27.3607 37.3788 26.7166C35.9156 25.9631 34.7254 25.0893 33.6002 23.9208C32.4648 22.7415 32.3012 22.6434 31.7443 22.9273Z" fill="#8EC63F"/>
</svg>
