<svg width="57" height="57" viewBox="0 0 57 57" fill="none" xmlns="http://www.w3.org/2000/svg">
<g clip-path="url(#clip0_2_114)">
<path d="M53.6949 28.0201H49.3175V16.7954C50.1914 16.4957 51.0013 16.0167 51.6953 15.3775C52.8819 14.2843 53.6321 12.816 53.8224 11.2233C53.847 11.0989 53.8598 10.9705 53.8598 10.8389V1.97017C53.8597 0.882051 52.9776 0 51.8896 0H4.1923C3.10418 0 2.22213 0.882051 2.22213 1.97017V10.8394C2.22213 10.9699 2.23482 11.0972 2.25932 11.2205C2.44913 12.8144 3.19948 14.2838 4.3869 15.3777C5.31827 16.2357 6.45838 16.8057 7.68254 17.0395V28.0202H3.30513C2.21712 28.0202 1.33496 28.9023 1.33496 29.9904C1.33496 31.0227 2.1294 31.8682 3.14025 31.9522V53.0682C3.14025 54.1562 4.02231 55.0384 5.11042 55.0384H7.68299C7.68755 56.1225 8.56749 57.0001 9.65271 57.0001C10.7379 57.0001 11.6179 56.1226 11.6224 55.0384H45.3777C45.3823 56.1225 46.2622 57.0001 47.3475 57.0001C48.4328 57.0001 49.3126 56.1226 49.3172 55.0384H51.89C52.978 55.0384 53.8601 54.1563 53.8601 53.0682V31.9521C54.8705 31.8682 55.6651 31.0227 55.6651 29.9903C55.665 28.9023 54.7829 28.0201 53.6949 28.0201ZM49.9197 10.6617C49.9192 10.6637 49.9191 10.6654 49.919 10.6673C49.7935 12.0984 48.5682 13.2194 47.1291 13.2194C45.6903 13.2194 44.4648 12.0984 44.3395 10.6673C44.3374 10.6431 44.3327 10.6196 44.3298 10.5956H49.9197V10.6617ZM18.4969 17.1597C20.1939 17.1597 21.8154 16.5269 23.0629 15.3777C23.1332 15.3129 23.2019 15.247 23.269 15.1798C23.3361 15.247 23.4048 15.3132 23.4751 15.3777C24.7226 16.527 26.344 17.1597 28.0411 17.1597C29.738 17.1597 31.3595 16.5269 32.6071 15.3777C32.6773 15.3129 32.746 15.247 32.8131 15.1797C32.8804 15.247 32.9491 15.3129 33.0192 15.3777C34.2668 16.527 35.8881 17.1597 37.5852 17.1597C39.2822 17.1597 40.9037 16.5269 42.1512 15.3777C42.2215 15.3129 42.2902 15.247 42.3573 15.1797C42.4245 15.247 42.4932 15.3129 42.5635 15.3777C43.3714 16.1221 44.3367 16.6482 45.3774 16.9277V28.0203H11.6228V16.6085C12.3127 16.3107 12.9544 15.8976 13.5187 15.3776C13.5889 15.3128 13.6576 15.2469 13.7248 15.1796C13.792 15.2469 13.8607 15.3128 13.9308 15.3776C15.1784 16.527 16.8 17.1597 18.4969 17.1597ZM15.6975 10.5956H21.2966C21.2936 10.6197 21.289 10.6431 21.2869 10.6673C21.1615 12.0984 19.936 13.2194 18.497 13.2194C17.0582 13.2194 15.8326 12.0984 15.7072 10.6673C15.7051 10.6431 15.7004 10.6196 15.6975 10.5956ZM25.2415 10.5956H30.8405C30.8375 10.6197 30.833 10.6431 30.8308 10.6673C30.7054 12.0984 29.48 13.2194 28.041 13.2194C26.6019 13.2194 25.3767 12.0984 25.2513 10.6673C25.2492 10.6431 25.2446 10.6196 25.2415 10.5956ZM34.7857 10.5956H40.3847C40.3817 10.6197 40.3771 10.6431 40.375 10.6673C40.2495 12.0984 39.024 13.2194 37.5851 13.2194C36.1463 13.2194 34.9208 12.0984 34.7955 10.6673C34.7933 10.6431 34.7887 10.6196 34.7857 10.5956ZM6.16236 3.94023H49.9196V6.65529H6.16236V3.94023ZM6.16292 10.6673C6.16281 10.6654 6.1627 10.6637 6.16236 10.6618V10.5955H11.7525C11.7495 10.6196 11.7449 10.6429 11.7428 10.6672C11.6173 12.0983 10.3919 13.2193 8.95291 13.2193C7.51388 13.2193 6.28838 12.0984 6.16292 10.6673ZM49.9195 51.0979H7.08048V31.9605H49.9195V51.0979Z" fill="#8EC63F"/>
<path d="M41.934 39.8838C41.1413 37.6305 38.9928 36.0104 36.472 36.0104H20.5281C18.0073 36.0104 15.8587 37.6305 15.0661 39.8838C14.1965 40.0885 13.5485 40.8676 13.5485 41.7996C13.5485 42.7318 14.1965 43.5108 15.0661 43.7155C15.8587 45.9688 18.0073 47.5889 20.5281 47.5889H36.472C38.9928 47.5889 41.1413 45.9688 41.934 43.7155C42.8035 43.5108 43.4516 42.7318 43.4516 41.7996C43.4516 40.8675 42.8035 40.0884 41.934 39.8838ZM36.4721 43.6487H20.5281C19.5086 43.6487 18.6791 42.8191 18.6791 41.7996C18.6791 40.78 19.5085 39.9506 20.5282 39.9506H36.4721C37.4915 39.9506 38.3211 40.78 38.3211 41.7996C38.3211 42.8193 37.4916 43.6487 36.4721 43.6487Z" fill="#8EC63F"/>
</g>
<defs>
<clipPath id="clip0_2_114">
<rect width="57" height="57" fill="white"/>
</clipPath>
</defs>
</svg>
