<svg width="17" height="18" viewBox="0 0 17 18" fill="none" xmlns="http://www.w3.org/2000/svg">
<path d="M3.86034 5.66161H0.531065C0.383306 5.66161 0.26358 5.78915 0.26358 5.94643V17.3353C0.26358 17.4926 0.383306 17.6201 0.531065 17.6201H3.86034C4.0081 17.6201 4.12782 17.4926 4.12782 17.3353V5.94643C4.12782 5.78915 4.0081 5.66161 3.86034 5.66161Z" fill="#8EC63F"/>
<path d="M2.1969 0C0.98552 0 0 1.04826 0 2.33675C0 3.6258 0.98552 4.67447 2.1969 4.67447C3.40733 4.67447 4.39204 3.62575 4.39204 2.33675C4.3921 1.04826 3.40733 0 2.1969 0Z" fill="#8EC63F"/>
<path d="M12.3286 5.37898C10.9915 5.37898 10.003 5.99107 9.40345 6.68655V5.94686C9.40345 5.78958 9.28372 5.66204 9.13596 5.66204H5.9476C5.79984 5.66204 5.68012 5.78958 5.68012 5.94686V17.3357C5.68012 17.493 5.79984 17.6205 5.9476 17.6205H9.2696C9.41736 17.6205 9.53708 17.493 9.53708 17.3357V11.7009C9.53708 9.80206 10.0214 9.06232 11.2645 9.06232C12.6183 9.06232 12.7259 10.2482 12.7259 11.7986V17.3358C12.7259 17.4931 12.8456 17.6206 12.9934 17.6206H16.3166C16.4643 17.6206 16.5841 17.4931 16.5841 17.3358V11.0888C16.5841 8.26532 16.0785 5.37898 12.3286 5.37898Z" fill="#8EC63F"/>
</svg>
