<svg width="56" height="56" viewBox="0 0 56 56" fill="none" xmlns="http://www.w3.org/2000/svg">
<path d="M28.002 16.3296C26.7138 16.3296 25.6685 17.3774 25.6685 18.6631C25.6685 19.9489 26.7138 20.9966 28.002 20.9966C29.2901 20.9966 30.3355 19.9488 30.3355 18.6631C30.3355 17.3773 29.2901 16.3296 28.002 16.3296Z" fill="#8EC63F"/>
<path d="M39.8728 4.25365C35.5487 0.690324 29.8664 -0.726212 24.2846 0.354293C16.7519 1.81743 10.8457 7.90558 9.59498 15.5037C8.85291 19.9888 9.67428 24.3875 11.9682 28.2216L12.9203 29.8107C15.9679 34.8909 19.1159 40.1459 21.6384 45.5504L25.8878 54.6536C26.2705 55.4749 27.0942 56 28.002 56C28.9097 56 29.7334 55.4749 30.1162 54.6536L33.9408 46.4581C36.4913 40.9906 39.6393 35.6631 42.6869 30.5107L44.1057 28.1024C45.7836 25.2485 46.6703 21.9839 46.6703 18.6633C46.6704 13.0698 44.1922 7.81698 39.8728 4.25365ZM28.002 25.6639C24.1423 25.6639 21.0013 22.5229 21.0013 18.6633C21.0013 14.8036 24.1423 11.6626 28.002 11.6626C31.8616 11.6626 35.0026 14.8036 35.0026 18.6633C35.0026 22.5229 31.8616 25.6639 28.002 25.6639Z" fill="#8EC63F"/>
</svg>
