<svg width="57" height="57" viewBox="0 0 57 57" fill="none" xmlns="http://www.w3.org/2000/svg">
<g clip-path="url(#clip0_2_166)">
<path d="M56.3791 27.2986C55.9487 26.8384 55.3423 26.5747 54.7146 26.5747H54.5278C55.374 25.1181 55.8342 23.4643 55.8342 21.7613C55.8342 17.9212 53.5372 14.4642 50.0504 12.9451C49.9686 7.70815 45.6886 3.47046 40.4323 3.47046C35.1771 3.47046 30.898 7.70527 30.8133 12.9403C30.6169 12.8941 30.4147 12.8671 30.2087 12.8671C29.3529 12.8671 28.5472 13.2849 28.0552 13.9838L27.8155 14.3246C27.6182 14.6038 27.2475 14.7049 26.9376 14.5605L26.5602 14.3853C25.7833 14.0233 24.8774 14.0657 24.1352 14.4931C23.393 14.9205 22.9049 15.6858 22.8279 16.5378L22.7904 16.9527C22.7769 17.101 22.7114 17.308 22.6257 17.5294C22.4053 17.4244 22.2474 17.2088 22.2243 16.9518L22.1868 16.5388C22.1136 15.7301 21.6814 15.0601 21.0624 14.6356L24.0919 10.3363C24.682 9.49777 24.9111 8.47637 24.734 7.46171C24.5578 6.44513 23.9995 5.56043 23.162 4.97031C21.4253 3.74771 19.0186 4.16359 17.796 5.90025L12.251 13.7701C12.0662 14.0329 11.9295 14.3179 11.8168 14.6105C11.7273 14.6144 11.632 14.6057 11.5338 14.5605L11.1564 14.3853C10.3796 14.0252 9.47175 14.0666 8.73145 14.4941C7.99019 14.9215 7.50212 15.6858 7.4251 16.5378L7.38756 16.9527C7.35675 17.2945 7.08624 17.565 6.74449 17.5958L6.33054 17.6333C5.47857 17.7104 4.71325 18.1994 4.28582 18.9397C3.85743 19.6819 3.817 20.5878 4.17704 21.3666L4.35128 21.742C4.49568 22.0539 4.39653 22.4236 4.11543 22.621L3.7756 22.8607C3.07574 23.3545 2.65793 24.1603 2.65793 25.0161C2.65793 25.587 2.85817 26.1261 3.18933 26.5737H2.28442C1.65675 26.5737 1.05027 26.8375 0.619951 27.2976C0.185785 27.7616 -0.0385184 28.3932 0.00480197 29.0276C0.574706 37.4481 5.93103 41.6762 13.799 45.4335C14.6769 45.8532 15.4018 46.5502 15.8418 47.3993C16.2711 48.2291 16.2028 49.2996 15.655 50.2103C15.242 50.8957 15.2305 51.7207 15.6242 52.4177C16.0179 53.1147 16.7303 53.5296 17.5303 53.5296H39.4697C40.2697 53.5296 40.982 53.1137 41.3758 52.4177C41.7695 51.7207 41.7579 50.8957 41.3353 50.1929C40.7972 49.2986 40.7298 48.2291 41.1582 47.4002C41.5972 46.5511 42.3221 45.8532 43.201 45.4335C51.067 41.6762 56.4243 37.449 56.9952 29.0285C57.0375 28.3932 56.8123 27.7626 56.3791 27.2986ZM53.9098 21.7613C53.9098 23.5134 53.3081 25.2067 52.2078 26.5747H47.1711V22.724C47.1711 22.1916 46.7408 21.7613 46.2084 21.7613C45.676 21.7613 45.2457 22.1916 45.2457 22.724V26.5747H41.8465C41.9245 26.4688 41.9919 26.3571 42.0525 26.2416C42.0554 26.2368 42.0593 26.232 42.0622 26.2271C42.1469 26.0635 42.2075 25.8883 42.2566 25.7102C42.2691 25.6659 42.2797 25.6216 42.2893 25.5754C42.3288 25.3925 42.3567 25.2067 42.3567 25.0161C42.3567 24.1593 41.9389 23.3545 41.24 22.8636L41.0186 22.7066C41.0956 22.7018 41.1698 22.6893 41.2458 22.6835C41.3613 22.6739 41.4768 22.6624 41.5914 22.6479C41.7811 22.6248 41.9688 22.5959 42.1546 22.5622C42.2643 22.542 42.375 22.5237 42.4838 22.4997C42.684 22.4563 42.8814 22.4024 43.0768 22.3466C43.1644 22.3216 43.253 22.3013 43.3396 22.2734C43.614 22.1858 43.8826 22.0886 44.1454 21.9779C44.2185 21.9471 44.2879 21.9105 44.3591 21.8778C44.5497 21.7921 44.7394 21.7035 44.9232 21.6053C45.0262 21.5505 45.1264 21.4908 45.2265 21.4321C45.3738 21.3464 45.5201 21.2597 45.6626 21.1664C45.7685 21.097 45.8724 21.0258 45.9754 20.9526C46.1054 20.8602 46.2334 20.764 46.3586 20.6658C46.4616 20.5849 46.5636 20.505 46.6628 20.4203C46.7812 20.3192 46.8938 20.2133 47.0074 20.1074C47.1047 20.0169 47.2028 19.9274 47.2962 19.833C47.4031 19.7243 47.5022 19.6087 47.6033 19.4951C47.7949 19.2805 47.9759 19.0581 48.1482 18.8261C48.2088 18.7443 48.2733 18.6653 48.3321 18.5806C48.437 18.4295 48.5333 18.2726 48.6295 18.1166C48.6777 18.0377 48.7277 17.9597 48.7739 17.8788C48.8712 17.7104 48.9607 17.538 49.0473 17.3638C49.081 17.2945 49.1147 17.2261 49.1474 17.1558C49.237 16.9643 49.3207 16.7708 49.3977 16.5725C49.4141 16.5301 49.4295 16.4858 49.4449 16.4435C49.6192 15.9746 49.7674 15.4933 49.8675 14.9946C52.3262 16.3241 53.9098 18.9108 53.9098 21.7613ZM40.4323 5.39581C44.6787 5.39581 48.1338 8.85085 48.1338 13.0972C48.1338 13.2426 48.1212 13.3851 48.1126 13.5285C48.1126 13.5285 48.1097 13.5343 48.1097 13.5381C48.0529 14.5499 47.8007 15.5058 47.3925 16.3732C47.3886 16.3819 47.3848 16.3905 47.3809 16.3992C47.2866 16.5985 47.1826 16.791 47.0719 16.9806C47.0584 17.0037 47.0459 17.0269 47.0324 17.05C46.9294 17.2223 46.8178 17.3898 46.7013 17.5525C46.6763 17.5881 46.6522 17.6237 46.6272 17.6584C46.5184 17.8066 46.4019 17.9491 46.2825 18.0887C46.245 18.133 46.2084 18.1782 46.1699 18.2215C46.0573 18.3486 45.9379 18.4689 45.8166 18.5883C45.7665 18.6384 45.7174 18.6884 45.6655 18.7375C45.5499 18.8453 45.4286 18.9464 45.3064 19.0475C45.2438 19.0995 45.1822 19.1524 45.1177 19.2015C44.9993 19.292 44.877 19.3767 44.7538 19.4615C44.6797 19.5125 44.6065 19.5645 44.5295 19.6126C44.4092 19.6886 44.285 19.757 44.1608 19.8263C44.0761 19.8735 43.9914 19.9226 43.9047 19.9669C43.7834 20.0285 43.6583 20.0833 43.5341 20.1382C43.4388 20.1806 43.3444 20.2249 43.2472 20.2624C43.125 20.3105 42.9998 20.3519 42.8747 20.3933C42.7697 20.4289 42.6667 20.4655 42.5599 20.4963C42.4386 20.532 42.3134 20.5589 42.1892 20.5878C42.0747 20.6147 41.9611 20.6436 41.8446 20.6658C41.7243 20.6879 41.602 20.7023 41.4807 20.7197C41.3565 20.737 41.2333 20.7553 41.1081 20.7668C41.0841 20.7688 41.0591 20.7688 41.034 20.7707C41.0359 20.7582 41.0359 20.7457 41.0379 20.7332C41.0696 20.5589 41.0802 20.3827 41.0764 20.2066C41.0754 20.1498 41.0687 20.0949 41.0639 20.0381C41.0523 19.8995 41.0292 19.7637 40.9965 19.629C40.983 19.5751 40.9724 19.5211 40.9551 19.4682C40.8983 19.2872 40.828 19.1091 40.7308 18.9416C40.3024 18.2004 39.538 17.7123 38.6861 17.6353L38.2711 17.5977C38.016 17.5746 37.8004 17.4177 37.6945 17.1963L39.7517 15.14C40.1281 14.7636 40.1281 14.1552 39.7517 13.7788C39.3753 13.4024 38.7669 13.4024 38.3905 13.7788L37.0168 15.1525C36.8137 14.8955 36.5749 14.6644 36.2842 14.496C36.0897 14.3833 35.8827 14.3015 35.671 14.2428C35.5997 14.2226 35.5275 14.2207 35.4553 14.2072C35.3109 14.1793 35.1684 14.1533 35.0221 14.1504C35.0038 14.1504 34.9855 14.1427 34.9672 14.1427C34.8565 14.1427 34.7477 14.1639 34.638 14.1783C34.5697 14.187 34.5013 14.187 34.4339 14.2004C34.2375 14.2409 34.045 14.3006 33.8592 14.3862L33.4838 14.5605C33.3875 14.6048 33.2854 14.6221 33.1824 14.6182C33.1767 14.6182 33.1719 14.6173 33.1661 14.6173C33.065 14.6105 32.9639 14.5826 32.8715 14.5316C32.7781 14.0445 32.7309 13.5631 32.7309 13.0972C32.7309 8.85085 36.185 5.39581 40.4323 5.39581ZM24.708 17.127L24.7456 16.7121C24.7658 16.4791 24.8948 16.2779 25.0979 16.1614C25.3001 16.0449 25.5388 16.0324 25.7506 16.1325L26.1299 16.3087C27.2841 16.842 28.6569 16.4733 29.3895 15.4346L29.6292 15.0938C29.8997 14.7097 30.5216 14.7126 30.7902 15.0928L31.0299 15.4336C31.5209 16.1296 32.2987 16.5157 33.1064 16.5397C33.116 16.5397 33.1247 16.5397 33.1343 16.5397C33.2508 16.5417 33.3682 16.5397 33.4847 16.5263C33.5396 16.5205 33.5935 16.508 33.6484 16.4983C33.7273 16.4839 33.8053 16.4733 33.8833 16.4521C34.0219 16.4146 34.1586 16.3674 34.2914 16.3058L34.6679 16.1306C34.8806 16.0324 35.1193 16.043 35.3205 16.1595C35.5227 16.2769 35.6517 16.4772 35.6719 16.7111L35.7095 17.1241C35.825 18.3929 36.8291 19.3979 38.0969 19.5115L38.5108 19.5491C38.7448 19.5693 38.946 19.6983 39.0625 19.9014C39.1799 20.1036 39.1905 20.3423 39.0923 20.5531L38.9152 20.9344C38.9075 20.9517 38.9046 20.9671 38.8978 20.9844C38.5551 21.77 38.6264 22.6431 39.0326 23.3497C39.0384 23.3593 39.0442 23.3699 39.0499 23.3795C39.1019 23.4671 39.1568 23.5509 39.2194 23.6327C39.2531 23.678 39.2906 23.7194 39.3272 23.7627C39.3744 23.8166 39.4196 23.8724 39.4716 23.9225C39.5698 24.0197 39.6747 24.1112 39.7902 24.192L40.132 24.4337C40.3226 24.5704 40.4323 24.7822 40.4323 25.0161C40.4323 25.25 40.3226 25.4608 40.132 25.5956L39.7893 25.8363C39.7864 25.8382 39.7845 25.8411 39.7806 25.844C39.6555 25.9335 39.5409 26.0346 39.4341 26.1444C39.3917 26.1877 39.3551 26.2368 39.3156 26.283C39.2579 26.3513 39.2011 26.4206 39.151 26.4948C39.1318 26.5227 39.1067 26.5467 39.0885 26.5756H26.4437C26.5217 26.4697 26.5891 26.3571 26.6507 26.2416C26.6536 26.2368 26.6565 26.2329 26.6594 26.2281C26.7441 26.0635 26.8057 25.8883 26.8548 25.7092C26.8673 25.6649 26.8769 25.6216 26.8865 25.5773C26.927 25.3954 26.9539 25.2096 26.9549 25.0199V25.018C26.9549 24.8948 26.9279 24.7774 26.9116 24.657C26.8991 24.5685 26.901 24.477 26.8788 24.3904C26.8086 24.1035 26.6748 23.8407 26.515 23.5942C26.334 23.316 26.1154 23.0609 25.8372 22.8645L25.4964 22.6238C25.2163 22.4265 25.1181 22.0578 25.2615 21.7478L25.4377 21.3695C25.5234 21.1846 25.5821 20.9911 25.6226 20.7948C25.6351 20.736 25.6351 20.6773 25.6428 20.6186C25.662 20.48 25.6765 20.3423 25.6736 20.2037C25.6716 20.1315 25.6601 20.0602 25.6524 19.988C25.6389 19.8639 25.6226 19.7406 25.5917 19.6193C25.5715 19.5404 25.5446 19.4653 25.5176 19.3883C25.4945 19.3248 25.483 19.2583 25.456 19.1958C25.4396 19.1582 25.4108 19.1303 25.3925 19.0947C25.3684 19.0456 25.3559 18.9926 25.3289 18.9445C25.2779 18.8569 25.2086 18.7847 25.148 18.7038C25.0979 18.6364 25.0536 18.5662 24.9978 18.5036C24.8813 18.3736 24.7484 18.2629 24.6098 18.1599C24.5684 18.1291 24.5376 18.0858 24.4943 18.0579C24.5944 17.7652 24.6791 17.4437 24.708 17.127ZM19.3709 7.01022C19.9822 6.14188 21.1865 5.93394 22.0539 6.54524C22.4717 6.83982 22.7509 7.28265 22.8385 7.79095C22.9261 8.3002 22.8135 8.81138 22.5189 9.22822L18.7635 14.5576C18.7635 14.5576 18.7625 14.5576 18.7625 14.5586L16.9729 17.0971C16.6783 17.5159 16.2365 17.7951 15.7282 17.8827C15.2208 17.9674 14.7087 17.8576 14.2909 17.5621C14.289 17.5611 14.288 17.5592 14.2861 17.5582C14.1484 17.461 14.0329 17.3426 13.928 17.2175C13.901 17.1857 13.876 17.152 13.851 17.1183C13.7595 16.9922 13.6806 16.8584 13.6218 16.7149C13.618 16.7053 13.6122 16.6976 13.6084 16.688C13.5496 16.5359 13.5169 16.3751 13.4977 16.2115C13.4928 16.1701 13.4909 16.1287 13.488 16.0873C13.4794 15.9236 13.4842 15.7571 13.5188 15.5905C13.5718 15.3383 13.6729 15.0967 13.825 14.881L19.3709 7.01022ZM5.22443 25.8353L4.88364 25.5956C4.69207 25.4608 4.58232 25.25 4.58232 25.0151C4.58232 24.7802 4.69207 24.5694 4.88364 24.4337L5.2225 24.1949C6.26508 23.4623 6.63282 22.0905 6.09757 20.9315L5.92333 20.556C5.82417 20.3433 5.83573 20.1045 5.95221 19.9014C6.06966 19.6992 6.26989 19.5702 6.50382 19.55L6.91681 19.5125C8.18562 19.3989 9.18969 18.3948 9.30521 17.126L9.34275 16.7111C9.36297 16.4781 9.49197 16.2779 9.69413 16.1604C9.89533 16.044 10.135 16.0334 10.3468 16.1316L10.7261 16.3077C11.0014 16.4348 11.2931 16.5089 11.5896 16.532C11.5925 16.5523 11.6012 16.5725 11.605 16.5927C11.6079 16.61 11.606 16.6273 11.6089 16.6437C11.6281 16.7535 11.6686 16.8545 11.6965 16.9614C11.7292 17.0856 11.7543 17.2117 11.7985 17.333C11.8515 17.4755 11.9246 17.6073 11.993 17.7421C12.0392 17.8326 12.0748 17.926 12.1287 18.0126C12.2231 18.1657 12.3386 18.3043 12.4541 18.4429C12.5032 18.5017 12.5417 18.5662 12.5937 18.622C12.7708 18.8097 12.9663 18.983 13.1819 19.1341C13.3715 19.268 13.5737 19.3777 13.7797 19.474C13.8452 19.5038 13.9116 19.5279 13.979 19.5539C14.1263 19.6126 14.2755 19.6627 14.4286 19.7021C14.5056 19.7223 14.5816 19.7416 14.6606 19.756C14.8233 19.7878 14.9879 19.8061 15.1544 19.8167C15.217 19.8205 15.2776 19.8302 15.3402 19.8311C15.3566 19.8311 15.372 19.835 15.3884 19.835C15.6107 19.835 15.8341 19.8157 16.0574 19.7772C17.073 19.6001 17.9577 19.0417 18.5479 18.2042L19.9639 16.1941C20.1247 16.301 20.2489 16.4743 20.2701 16.7111L20.3076 17.1241C20.4231 18.3929 21.4272 19.397 22.6951 19.5115L23.109 19.5491C23.1995 19.5568 23.2784 19.5943 23.3555 19.6319C23.393 19.6511 23.4305 19.6684 23.4642 19.6944C23.5162 19.7329 23.5586 19.783 23.598 19.835C23.6231 19.8677 23.651 19.8975 23.6702 19.9351C23.7165 20.0256 23.7492 20.1209 23.754 20.2191C23.754 20.2229 23.753 20.2287 23.753 20.2326C23.7569 20.3404 23.7367 20.4501 23.6895 20.5522L23.5133 20.9305C23.3121 21.3647 23.239 21.8287 23.2804 22.2782C23.2813 22.284 23.2833 22.2898 23.2833 22.2965C23.2977 22.44 23.3218 22.5815 23.3593 22.7211C23.5143 23.3006 23.8666 23.8262 24.3865 24.192L24.6204 24.3567L24.7273 24.4317C24.9198 24.5713 25.0295 24.7822 25.0295 25.0161C25.0295 25.1335 25.0026 25.2442 24.9506 25.3434C24.9362 25.3723 24.9054 25.3896 24.8861 25.4166C24.8399 25.482 24.7956 25.5485 24.7273 25.5966L24.7148 25.6052L24.3855 25.8363C24.2536 25.9297 24.1323 26.0375 24.0207 26.153C23.986 26.1886 23.9581 26.2291 23.9263 26.2656C23.8532 26.3504 23.7829 26.437 23.7203 26.5304C23.7097 26.5458 23.6953 26.5593 23.6856 26.5747H5.92622C5.74235 26.2859 5.50457 26.0327 5.22443 25.8353ZM42.3712 43.6958C41.1168 44.2946 40.079 45.2958 39.4475 46.5155C38.713 47.9345 38.8045 49.7241 39.6949 51.2028C39.7604 51.3125 39.7334 51.4088 39.6978 51.4694C39.6632 51.5301 39.5958 51.6042 39.4677 51.6042H17.5303C17.4032 51.6042 17.3349 51.5311 17.3002 51.4694C17.2656 51.4088 17.2377 51.3125 17.3137 51.1855C18.1946 49.7232 18.286 47.9335 17.5515 46.5136C16.9209 45.2939 15.8822 44.2927 14.6288 43.6949C7.16325 40.1311 2.43459 36.4122 1.9263 28.8986C1.91667 28.7551 1.98599 28.6579 2.02738 28.6126C2.07552 28.5607 2.15927 28.5 2.28538 28.5H5.31396H24.2998H39.7026H39.7633H52.6525H54.7156C54.8407 28.5 54.9245 28.5607 54.9736 28.6126C55.015 28.6579 55.0843 28.7542 55.0737 28.8986C54.5644 36.4122 49.8358 40.1311 42.3712 43.6958Z" fill="#8EC63F"/>
<path d="M35.619 44.8655H27.237C26.7056 44.8655 26.2743 45.2958 26.2743 45.8282C26.2743 46.3605 26.7056 46.7908 27.237 46.7908H35.619C36.1504 46.7908 36.5817 46.3605 36.5817 45.8282C36.5817 45.2958 36.1504 44.8655 35.619 44.8655Z" fill="#8EC63F"/>
<path d="M21.1789 46.7908H24.4385C24.9699 46.7908 25.4012 46.3605 25.4012 45.8282C25.4012 45.2958 24.9699 44.8655 24.4385 44.8655H21.1789C20.6475 44.8655 20.2162 45.2958 20.2162 45.8282C20.2162 46.3605 20.6465 46.7908 21.1789 46.7908Z" fill="#8EC63F"/>
<path d="M35.619 47.7535H21.1789C20.6475 47.7535 20.2162 48.1839 20.2162 48.7162C20.2162 49.2486 20.6475 49.6789 21.1789 49.6789H35.619C36.1504 49.6789 36.5817 49.2486 36.5817 48.7162C36.5817 48.1839 36.1504 47.7535 35.619 47.7535Z" fill="#8EC63F"/>
<path d="M38.3905 12.4166C38.5783 12.6043 38.8247 12.6987 39.0712 12.6987C39.3176 12.6987 39.564 12.6043 39.7518 12.4166C40.1282 12.0402 40.1282 11.4318 39.7518 11.0554L37.0284 8.33293C36.6519 7.95653 36.0435 7.95653 35.6671 8.33293C35.2907 8.70934 35.2907 9.31775 35.6671 9.69416L38.3905 12.4166Z" fill="#8EC63F"/>
<path d="M43.8354 17.8615C44.0231 18.0492 44.2696 18.1436 44.516 18.1436C44.7625 18.1436 45.0089 18.0492 45.1966 17.8615C45.5731 17.4851 45.5721 16.8767 45.1966 16.5003L42.4732 13.7778C42.0968 13.4014 41.4884 13.4014 41.112 13.7778C40.7356 14.1542 40.7356 14.7626 41.112 15.139L43.8354 17.8615Z" fill="#8EC63F"/>
<path d="M41.7936 12.6987C42.04 12.6987 42.2865 12.6043 42.4742 12.4166L45.1976 9.69416C45.5731 9.31775 45.574 8.70934 45.1976 8.33293C44.8212 7.95653 44.2128 7.95653 43.8364 8.33293L41.113 11.0554C40.7366 11.4318 40.7366 12.0402 41.113 12.4166C41.3007 12.6043 41.5472 12.6987 41.7936 12.6987Z" fill="#8EC63F"/>
<path d="M47.1711 20.7986C47.1711 21.331 47.6014 21.7613 48.1338 21.7613H51.9845C52.5168 21.7613 52.9471 21.331 52.9471 20.7986C52.9471 20.2663 52.5168 19.8359 51.9845 19.8359H48.1338C47.6014 19.8359 47.1711 20.2663 47.1711 20.7986Z" fill="#8EC63F"/>
<path d="M29.3616 21.2799C29.608 21.2799 29.8545 21.1856 30.0422 20.9979L31.4862 19.5539C31.8626 19.1775 31.8626 18.569 31.4862 18.1926C31.1098 17.8162 30.5014 17.8162 30.125 18.1926L28.681 19.6367C28.3046 20.0131 28.3046 20.6215 28.681 20.9979C28.8687 21.1856 29.1152 21.2799 29.3616 21.2799Z" fill="#8EC63F"/>
<path d="M33.9757 23.4046C34.1634 23.5923 34.4099 23.6867 34.6563 23.6867C34.9027 23.6867 35.1492 23.5923 35.3369 23.4046C35.7133 23.0282 35.7133 22.4198 35.3369 22.0434L34.3742 21.0807C33.9978 20.7043 33.3894 20.7043 33.013 21.0807C32.6366 21.4571 32.6366 22.0655 33.013 22.4419L33.9757 23.4046Z" fill="#8EC63F"/>
<path d="M30.125 23.0061L29.1623 23.9687C28.7859 24.3451 28.7859 24.9536 29.1623 25.33C29.35 25.5177 29.5965 25.612 29.8429 25.612C30.0894 25.612 30.3358 25.5177 30.5235 25.33L31.4862 24.3673C31.8626 23.9909 31.8626 23.3825 31.4862 23.0061C31.1098 22.6297 30.5004 22.6297 30.125 23.0061Z" fill="#8EC63F"/>
</g>
<defs>
<clipPath id="clip0_2_166">
<rect width="57" height="57" fill="white"/>
</clipPath>
</defs>
</svg>
