<svg width="14" height="18" viewBox="0 0 14 18" fill="none" xmlns="http://www.w3.org/2000/svg">
<path d="M11.727 1.80568C10.5469 0.641297 8.91377 0 7.12849 0C4.4014 0 2.72411 1.14896 1.79727 2.11276C0.654985 3.30054 0 4.8777 0 6.43989C0 8.40133 0.798231 9.9068 2.13495 10.4669C2.22469 10.5047 2.315 10.5237 2.40353 10.5237C2.68554 10.5237 2.90898 10.334 2.98639 10.0298C3.03153 9.85531 3.13607 9.42474 3.18154 9.23783C3.27884 8.86872 3.20022 8.69117 2.988 8.43412C2.60139 7.96394 2.42135 7.40796 2.42135 6.68437C2.42135 4.5351 3.97843 2.25087 6.86434 2.25087C9.15419 2.25087 10.5766 3.58853 10.5766 5.74177C10.5766 7.10056 10.2918 8.35893 9.77462 9.28522C9.4152 9.92886 8.78318 10.6961 7.81294 10.6961C7.39339 10.6961 7.01649 10.5189 6.77868 10.2101C6.55404 9.91815 6.47997 9.54103 6.57034 9.14797C6.6724 8.70387 6.8116 8.24064 6.9463 7.79283C7.19198 6.97491 7.42422 6.20239 7.42422 5.58604C7.42422 4.53183 6.79365 3.82345 5.85525 3.82345C4.66268 3.82345 3.72837 5.0684 3.72837 6.6577C3.72837 7.43714 3.92991 8.02014 4.02116 8.24398C3.87091 8.89822 2.97802 12.7879 2.80866 13.5213C2.71072 13.9495 2.12079 17.3313 3.09722 17.6009C4.1943 17.9039 5.17495 14.6103 5.27477 14.2381C5.35567 13.9354 5.63871 12.7908 5.81216 12.0873C6.34178 12.6116 7.19452 12.9661 8.02426 12.9661C9.58848 12.9661 10.9952 12.2426 11.9854 10.9291C12.9457 9.65501 13.4746 7.87924 13.4746 5.92913C13.4745 4.40459 12.8375 2.9016 11.727 1.80568Z" fill="#8EC63F"/>
</svg>
