<svg width="21" height="18" viewBox="0 0 21 18" fill="none" xmlns="http://www.w3.org/2000/svg">
<path d="M20.2604 2.03356C19.9347 2.18349 19.5999 2.31006 19.2577 2.41284C19.6628 1.93725 19.9716 1.37769 20.1601 0.765368C20.2024 0.628125 20.1586 0.477893 20.0499 0.388107C19.9413 0.298278 19.7906 0.287518 19.6711 0.361036C18.9445 0.808412 18.1607 1.12994 17.3388 1.31791C16.5108 0.478019 15.3863 0 14.2238 0C11.77 0 9.7736 2.07256 9.7736 4.62004C9.7736 4.82067 9.78583 5.02021 9.81005 5.21697C6.76507 4.93942 3.9342 3.3856 1.99027 0.909968C1.92099 0.821737 1.81426 0.774154 1.70499 0.783275C1.59567 0.792144 1.4974 0.856163 1.44218 0.954567C1.0479 1.65692 0.839464 2.46025 0.839464 3.27762C0.839464 4.39086 1.22228 5.44707 1.89856 6.27242C1.69292 6.19848 1.49339 6.10609 1.30294 5.99634C1.2007 5.93724 1.07592 5.93816 0.974331 5.99861C0.872705 6.05909 0.808977 6.17028 0.806264 6.29184C0.805778 6.31231 0.805778 6.33278 0.805778 6.35355C0.805778 8.01522 1.66721 9.51128 2.98426 10.3267C2.87109 10.3149 2.75805 10.2979 2.64569 10.2756C2.52986 10.2526 2.41078 10.2948 2.33268 10.3865C2.25445 10.4782 2.22854 10.6059 2.26462 10.7226C2.7521 12.3027 4.0072 13.4649 5.5245 13.8193C4.26604 14.6376 2.82692 15.0662 1.31618 15.0662C1.00093 15.0662 0.683908 15.047 0.373645 15.0089C0.219505 14.9898 0.0721274 15.0843 0.0196139 15.2365C-0.0328996 15.3888 0.022772 15.5585 0.153874 15.6458C2.09469 16.9377 4.3388 17.6206 6.64352 17.6206C11.1743 17.6206 14.0087 15.4024 15.5885 13.5417C17.5585 11.2214 18.6884 8.15024 18.6884 5.11575C18.6884 4.98898 18.6865 4.86098 18.6827 4.73336C19.46 4.12541 20.1291 3.38964 20.6737 2.54398C20.7564 2.41557 20.7474 2.24579 20.6516 2.12759C20.556 2.00918 20.3965 1.97092 20.2604 2.03356Z" fill="#8EC63F"/>
</svg>
