<svg width="56" height="56" viewBox="0 0 56 56" fill="none" xmlns="http://www.w3.org/2000/svg">
<g clip-path="url(#clip0_2_307)">
<path d="M55.4404 22.4094C55.2434 21.4415 54.2998 20.8179 53.3307 21.0137C53.2019 21.0399 53.0794 21.0802 52.964 21.1315C52.2116 21.4639 51.7641 22.2842 51.935 23.1234C53.8321 32.4407 50.1028 42.0938 42.4334 47.7158C37.2052 51.5482 30.7539 53.1082 24.2676 52.1096C17.7814 51.1103 12.0986 47.6809 8.26616 42.4524C0.297757 31.581 2.65876 16.2538 13.5295 8.28484C18.7577 4.45267 25.2094 2.89268 31.6953 3.89104C37.9943 4.86138 43.5304 8.12923 47.3551 13.1055L45.7108 12.8691C44.7321 12.7278 43.8262 13.4072 43.6857 14.385C43.545 15.3628 44.2238 16.2693 45.2016 16.41L51.1384 17.2638C51.1778 17.2695 51.2165 17.2692 51.2559 17.2722C51.3024 17.2757 51.3492 17.2823 51.3954 17.2823C52.2706 17.2823 53.0353 16.6393 53.1638 15.7479L54.0175 9.81115C54.1582 8.83335 53.4795 7.92681 52.5017 7.7861C51.5236 7.6451 50.6173 8.32419 50.4766 9.30198L50.2349 10.983C45.8452 5.24087 39.4809 1.47071 32.2402 0.355489C24.8099 -0.789838 17.4139 1.00238 11.4151 5.39946C5.41596 9.79743 1.48154 16.3114 0.337107 23.7417C-0.807326 31.1723 0.983701 38.568 5.38138 44.5671C9.77875 50.566 16.2927 54.5001 23.7233 55.6448C25.1882 55.8705 26.651 55.982 28.1028 55.982C34.0152 55.982 39.7326 54.131 44.5485 50.6005C53.3396 44.1561 57.6151 33.0903 55.4404 22.4094Z" fill="#8EC63F"/>
<path d="M37.7406 28.6695H31.6354C31.1876 27.6562 30.3732 26.8415 29.3599 26.394V12.671C29.3599 11.6833 28.5589 10.8823 27.5713 10.8823C26.5837 10.8823 25.7826 11.6833 25.7826 12.671V26.394C24.2218 27.0838 23.1283 28.6447 23.1283 30.4581C23.1283 32.908 25.1214 34.9011 27.5713 34.9011C29.3847 34.9011 30.9456 33.8076 31.6354 32.2468H37.7406C38.7282 32.2468 39.5292 31.4457 39.5292 30.4581C39.5292 29.4705 38.7282 28.6695 37.7406 28.6695ZM26.7053 30.4581C26.7053 29.9805 27.0937 29.5921 27.571 29.5921C28.0483 29.5921 28.437 29.9805 28.437 30.4581C28.437 30.9357 28.0486 31.3238 27.571 31.3238C27.0934 31.3238 26.7053 30.9354 26.7053 30.4581Z" fill="#8EC63F"/>
</g>
<defs>
<clipPath id="clip0_2_307">
<rect width="56" height="56" fill="white"/>
</clipPath>
</defs>
</svg>
